<svg xmlns="http://www.w3.org/2000/svg" xmlns:xlink="http://www.w3.org/1999/xlink" width="528" height="639" viewBox="0 0 528 639">
  <defs>
    <rect id="hv-screenshot-lrg-a" width="528" height="639" rx="4"/>
    <rect id="hv-screenshot-lrg-c" width="232" height="246" rx="4"/>
    <circle id="hv-screenshot-lrg-d" cx="34" cy="34" r="34"/>
    <rect id="hv-screenshot-lrg-e" width="232" height="246" rx="4"/>
    <circle id="hv-screenshot-lrg-f" cx="34" cy="34" r="34"/>
    <rect id="hv-screenshot-lrg-g" width="232" height="246" rx="4"/>
    <circle id="hv-screenshot-lrg-h" cx="34" cy="34" r="34"/>
    <rect id="hv-screenshot-lrg-i" width="232" height="246" rx="4"/>
    <circle id="hv-screenshot-lrg-j" cx="34" cy="34" r="34"/>
  </defs>
  <g fill="none" fill-rule="evenodd">
    <mask id="hv-screenshot-lrg-b" fill="#fff">
      <use xlink:href="#hv-screenshot-lrg-a"/>
    </mask>
    <use fill="#F9F9F9" xlink:href="#hv-screenshot-lrg-a"/>
    <rect width="527" height="638" x=".5" y=".5" stroke="#DDD" rx="4"/>
    <g mask="url(#hv-screenshot-lrg-b)">
      <rect width="1024" height="60" fill="#34495E"/>
      <g fill="#FFF" transform="translate(335 22)">
        <rect width="30" height="6" y="5" rx="3"/>
        <rect width="73" height="6" x="70" y="5" rx="3"/>
      </g>
      <path fill="#28313B" d="M41.088,130.664 C41.088,132.61601 40.8480024,134.375992 40.368,135.944 C39.8879976,137.512008 39.1720048,138.847994 38.22,139.952 C37.2679952,141.056006 36.0800071,141.903997 34.656,142.496 C33.2319929,143.088003 31.5760094,143.384 29.688,143.384 C28.8239957,143.384 27.9760042,143.332001 27.144,143.228 C26.3119958,143.123999 25.4400046,142.960001 24.528,142.736 C24.5760002,142.095997 24.6319997,141.456003 24.696,140.816 C24.7600003,140.175997 24.8159998,139.536003 24.864,138.896 C24.9120002,138.543998 25.0519988,138.260001 25.284,138.044 C25.5160012,137.827999 25.8479978,137.72 26.28,137.72 C26.5520014,137.72 26.9079978,137.775999 27.348,137.888 C27.7880022,138.000001 28.3439966,138.056 29.016,138.056 C29.9280046,138.056 30.7359965,137.924001 31.44,137.66 C32.1440035,137.395999 32.7319976,136.976003 33.204,136.4 C33.6760024,135.823997 34.0319988,135.076005 34.272,134.156 C34.5120012,133.235995 34.632,132.120007 34.632,130.808 L34.632,108.296 L41.088,108.296 L41.088,130.664 Z M58.648,117.992 C60.4720091,117.992 62.1319925,118.287997 63.628,118.88 C65.1240075,119.472003 66.4039947,120.311995 67.468,121.4 C68.5320053,122.488005 69.3519971,123.815992 69.928,125.384 C70.5040029,126.952008 70.792,128.70399 70.792,130.64 C70.792,132.59201 70.5040029,134.351992 69.928,135.92 C69.3519971,137.488008 68.5320053,138.823994 67.468,139.928 C66.4039947,141.032006 65.1240075,141.879997 63.628,142.472 C62.1319925,143.064003 60.4720091,143.36 58.648,143.36 C56.8079908,143.36 55.1360075,143.064003 53.632,142.472 C52.1279925,141.879997 50.8440053,141.032006 49.78,139.928 C48.7159947,138.823994 47.8920029,137.488008 47.308,135.92 C46.7239971,134.351992 46.432,132.59201 46.432,130.64 C46.432,128.70399 46.7239971,126.952008 47.308,125.384 C47.8920029,123.815992 48.7159947,122.488005 49.78,121.4 C50.8440053,120.311995 52.1279925,119.472003 53.632,118.88 C55.1360075,118.287997 56.8079908,117.992 58.648,117.992 Z M58.648,138.8 C60.6960102,138.8 62.2119951,138.112007 63.196,136.736 C64.1800049,135.359993 64.672,133.344013 64.672,130.688 C64.672,128.031987 64.1800049,126.008007 63.196,124.616 C62.2119951,123.223993 60.6960102,122.528 58.648,122.528 C56.5679896,122.528 55.028005,123.227993 54.028,124.628 C53.027995,126.028007 52.528,128.047987 52.528,130.688 C52.528,133.328013 53.027995,135.339993 54.028,136.724 C55.028005,138.108007 56.5679896,138.8 58.648,138.8 Z M82.256,136.616 C82.9280034,137.432004 83.659996,138.007998 84.452,138.344 C85.244004,138.680002 86.0799956,138.848 86.96,138.848 C87.8720046,138.848 88.6919964,138.684002 89.42,138.356 C90.1480036,138.027998 90.7679974,137.516003 91.28,136.82 C91.7920026,136.123997 92.1839986,135.236005 92.456,134.156 C92.7280014,133.075995 92.864,131.784008 92.864,130.28 C92.864,127.575986 92.4160045,125.620006 91.52,124.412 C90.6239955,123.203994 89.3360084,122.6 87.656,122.6 C86.5199943,122.6 85.5280042,122.859997 84.68,123.38 C83.8319958,123.900003 83.0240038,124.631995 82.256,125.576 L82.256,136.616 Z M82.256,121.4 C83.248005,120.359995 84.347994,119.532003 85.556,118.916 C86.764006,118.299997 88.1439922,117.992 89.696,117.992 C91.1200071,117.992 92.4039943,118.271997 93.548,118.832 C94.6920057,119.392003 95.667996,120.195995 96.476,121.244 C97.284004,122.292005 97.9039978,123.559993 98.336,125.048 C98.7680022,126.536007 98.984,128.207991 98.984,130.064 C98.984,132.06401 98.7360025,133.879992 98.24,135.512 C97.7439975,137.144008 97.0360046,138.539994 96.116,139.7 C95.1959954,140.860006 94.0880065,141.759997 92.792,142.4 C91.4959935,143.040003 90.0560079,143.36 88.472,143.36 C87.7039962,143.36 87.0080031,143.284001 86.384,143.132 C85.7599969,142.979999 85.1840026,142.768001 84.656,142.496 C84.1279974,142.223999 83.6440022,141.892002 83.204,141.5 C82.7639978,141.107998 82.344002,140.672002 81.944,140.192 L81.68,141.848 C81.5839995,142.264002 81.4200012,142.559999 81.188,142.736 C80.9559988,142.912001 80.640002,143 80.24,143 L76.328,143 L76.328,107.336 L82.256,107.336 L82.256,121.4 Z M119.592,123.176 C119.431999,123.432001 119.264001,123.611999 119.088,123.716 C118.911999,123.820001 118.688001,123.872 118.416,123.872 C118.127999,123.872 117.820002,123.792001 117.492,123.632 C117.163998,123.471999 116.784002,123.292001 116.352,123.092 C115.919998,122.891999 115.428003,122.712001 114.876,122.552 C114.323997,122.391999 113.672004,122.312 112.92,122.312 C111.751994,122.312 110.836003,122.559998 110.172,123.056 C109.507997,123.552002 109.176,124.199996 109.176,125 C109.176,125.528003 109.347998,125.971998 109.692,126.332 C110.036002,126.692002 110.491997,127.007999 111.06,127.28 C111.628003,127.552001 112.271996,127.795999 112.992,128.012 C113.712004,128.228001 114.443996,128.463999 115.188,128.72 C115.932004,128.976001 116.663996,129.267998 117.384,129.596 C118.104004,129.924002 118.747997,130.339997 119.316,130.844 C119.884003,131.348003 120.339998,131.951996 120.684,132.656 C121.028002,133.360004 121.2,134.207995 121.2,135.2 C121.2,136.384006 120.988002,137.475995 120.564,138.476 C120.139998,139.476005 119.512004,140.339996 118.68,141.068 C117.847996,141.796004 116.820006,142.363998 115.596,142.772 C114.371994,143.180002 112.960008,143.384 111.36,143.384 C110.511996,143.384 109.684004,143.308001 108.876,143.156 C108.067996,143.003999 107.292004,142.792001 106.548,142.52 C105.803996,142.247999 105.116003,141.928002 104.484,141.56 C103.851997,141.191998 103.296002,140.792002 102.816,140.36 L104.184,138.104 C104.360001,137.831999 104.567999,137.624001 104.808,137.48 C105.048001,137.335999 105.351998,137.264 105.72,137.264 C106.088002,137.264 106.435998,137.367999 106.764,137.576 C107.092002,137.784001 107.471998,138.007999 107.904,138.248 C108.336002,138.488001 108.843997,138.711999 109.428,138.92 C110.012003,139.128001 110.751996,139.232 111.648,139.232 C112.352004,139.232 112.955997,139.148001 113.46,138.98 C113.964003,138.811999 114.379998,138.592001 114.708,138.32 C115.036002,138.047999 115.275999,137.732002 115.428,137.372 C115.580001,137.011998 115.656,136.640002 115.656,136.256 C115.656,135.679997 115.484002,135.208002 115.14,134.84 C114.795998,134.471998 114.340003,134.152001 113.772,133.88 C113.203997,133.607999 112.556004,133.364001 111.828,133.148 C111.099996,132.931999 110.356004,132.696001 109.596,132.44 C108.835996,132.183999 108.092004,131.884002 107.364,131.54 C106.635996,131.195998 105.988003,130.760003 105.42,130.232 C104.851997,129.703997 104.396002,129.056004 104.052,128.288 C103.707998,127.519996 103.536,126.592005 103.536,125.504 C103.536,124.495995 103.735998,123.536005 104.136,122.624 C104.536002,121.711995 105.123996,120.916003 105.9,120.236 C106.676004,119.555997 107.643994,119.012002 108.804,118.604 C109.964006,118.195998 111.303992,117.992 112.824,117.992 C114.520008,117.992 116.063993,118.271997 117.456,118.832 C118.848007,119.392003 120.007995,120.127995 120.936,121.04 L119.592,123.176 Z"/>
      <g transform="translate(24 188)">
        <use fill="#FFF" xlink:href="#hv-screenshot-lrg-c"/>
        <rect width="231" height="245" x=".5" y=".5" stroke="#DDD" rx="4"/>
        <rect width="60" height="24" fill="#FFCF7D" opacity=".2" rx="4" transform="translate(156 16)"/>
        <rect width="232" height="1" y="188" fill="#DDD"/>
        <rect width="1" height="58" x="116" y="188" fill="#DDD"/>
        <g transform="translate(16 16)">
          <g fill="#DDD" transform="translate(0 85)">
            <rect width="35" height="6" x="117" y="123" rx="3"/>
            <rect width="65" height="6" x="117" y="105" rx="3"/>
            <rect width="35" height="6" y="123" rx="3"/>
            <rect width="65" height="6" y="105" rx="3"/>
            <rect width="30" height="6" y="7" rx="3"/>
            <rect width="32" height="6" x="168" y="64" rx="3"/>
            <rect width="56" height="6" y="64" rx="3"/>
            <rect width="104" height="6" y="46" rx="3"/>
          </g>
          <use fill="#F9F9F9" xlink:href="#hv-screenshot-lrg-d"/>
          <circle cx="34" cy="34" r="33.5" stroke="#DDD"/>
        </g>
      </g>
      <g transform="translate(272 188)">
        <use fill="#FFF" xlink:href="#hv-screenshot-lrg-e"/>
        <rect width="231" height="245" x=".5" y=".5" stroke="#DDD" rx="4"/>
        <rect width="232" height="1" y="188" fill="#DDD"/>
        <rect width="1" height="58" x="116" y="188" fill="#DDD"/>
        <g transform="translate(16 16)">
          <g fill="#DDD" transform="translate(0 85)">
            <rect width="35" height="6" x="117" y="123" rx="3"/>
            <rect width="65" height="6" x="117" y="105" rx="3"/>
            <rect width="35" height="6" y="123" rx="3"/>
            <rect width="65" height="6" y="105" rx="3"/>
            <rect width="30" height="6" y="7" rx="3"/>
            <rect width="32" height="6" x="168" y="64" rx="3"/>
            <rect width="56" height="6" y="64" rx="3"/>
            <rect width="104" height="6" y="46" rx="3"/>
          </g>
          <use fill="#F9F9F9" xlink:href="#hv-screenshot-lrg-f"/>
          <circle cx="34" cy="34" r="33.5" stroke="#DDD"/>
        </g>
      </g>
      <g transform="translate(24 450)">
        <use fill="#FFF" xlink:href="#hv-screenshot-lrg-g"/>
        <rect width="231" height="245" x=".5" y=".5" stroke="#DDD" rx="4"/>
        <rect width="232" height="1" y="188" fill="#DDD"/>
        <rect width="1" height="58" x="116" y="188" fill="#DDD"/>
        <g transform="translate(16 16)">
          <g fill="#DDD" transform="translate(0 85)">
            <rect width="30" height="6" y="7" rx="3"/>
            <rect width="32" height="6" x="168" y="64" rx="3"/>
            <rect width="56" height="6" y="64" rx="3"/>
            <rect width="104" height="6" y="46" rx="3"/>
          </g>
          <use fill="#F9F9F9" xlink:href="#hv-screenshot-lrg-h"/>
          <circle cx="34" cy="34" r="33.5" stroke="#DDD"/>
        </g>
      </g>
      <g transform="translate(272 450)">
        <use fill="#FFF" xlink:href="#hv-screenshot-lrg-i"/>
        <rect width="231" height="245" x=".5" y=".5" stroke="#DDD" rx="4"/>
        <rect width="64" height="24" x="152" y="16" fill="#3ECF8E" opacity=".2" rx="4"/>
        <rect width="232" height="1" y="188" fill="#DDD"/>
        <rect width="1" height="58" x="116" y="188" fill="#DDD"/>
        <g transform="translate(16 16)">
          <g fill="#DDD" transform="translate(0 85)">
            <rect width="30" height="6" y="7" rx="3"/>
            <rect width="32" height="6" x="168" y="64" rx="3"/>
            <rect width="56" height="6" y="64" rx="3"/>
            <rect width="104" height="6" y="46" rx="3"/>
          </g>
          <use fill="#F9F9F9" xlink:href="#hv-screenshot-lrg-j"/>
          <circle cx="34" cy="34" r="33.5" stroke="#DDD"/>
        </g>
      </g>
      <g fill="#FFF" fill-rule="nonzero" transform="translate(24 12)">
        <polygon points="25.929 19.949 23.253 25.302 20.576 19.949 17.9 25.302 20.576 30.655 17.967 35.941 .041 .059 5.395 .059 15.223 19.85 17.9 14.462 10.698 .059 16.034 .059"/>
        <polygon points="35.959 .059 27 17.976 18.041 .059 23.395 .059 27 7.136 30.605 .059"/>
      </g>
    </g>
  </g>
</svg>
